<svg width="50" height="51" viewBox="0 0 50 51" fill="none" xmlns="http://www.w3.org/2000/svg">
<path d="M44.8291 5.1812C37.9208 -1.72707 26.6791 -1.72707 19.7709 5.1812C13.0573 11.895 12.9015 22.6992 19.2601 29.6428L17.1861 31.7165C15.7702 30.8158 13.9293 31.0151 12.7421 32.2031C8.73877 36.2062 5.14023 39.8045 1.04629 43.898C-0.348763 45.2938 -0.348763 47.5636 1.04629 48.9586C2.44017 50.3542 4.70412 50.3623 6.10689 48.9586C12.905 42.161 -0.776861 55.8431 17.8027 37.2628C18.9859 36.0809 19.1987 34.2469 18.291 32.8218L20.3652 30.748C27.3887 37.1812 38.1589 36.8807 44.8142 30.2249C51.7229 23.3159 51.7293 12.0812 44.8291 5.1812ZM6.93144 45.9241L4.08156 43.0739C4.38932 42.766 11.7919 35.3635 11.9176 35.2378L14.7678 38.0879L6.93144 45.9241ZM2.15145 47.8536C1.36578 47.0676 1.36578 45.7892 2.15145 45.0032L2.9761 44.1785L5.82647 47.0292L5.00202 47.8536C4.21078 48.6447 2.93791 48.6399 2.15145 47.8536ZM16.6976 36.1579L15.8728 36.9827L13.0226 34.1325L13.847 33.3081C14.633 32.5221 15.911 32.5216 16.6975 33.3081C17.4873 34.0979 17.4873 35.3682 16.6976 36.1579ZM43.7092 29.1198C37.4183 35.4099 27.1822 35.4099 20.8914 29.1198C14.5921 22.8205 14.5852 12.5771 20.8761 6.28636C27.175 -0.0118432 37.4241 -0.0129177 43.7241 6.28636C50.0148 12.5771 50.0081 22.8206 43.7092 29.1198ZM32.298 7.81962C26.85 7.81962 22.4175 12.2522 22.4175 17.7005C22.4175 23.1481 26.85 27.5806 32.298 27.5806C37.7514 27.5806 42.188 23.148 42.188 17.7005C42.1881 12.2521 37.7514 7.81962 32.298 7.81962ZM32.298 26.0175C27.7117 26.0175 23.9805 22.2864 23.9805 17.7004C23.9805 13.1138 27.7117 9.38257 32.298 9.38257C36.8896 9.38257 40.6251 13.1138 40.6251 17.7004C40.6251 22.2864 36.8898 26.0175 32.298 26.0175ZM31.3644 16.1153C31.3644 16.5588 31.725 16.9189 32.168 16.9189H32.4378C33.7428 16.9189 34.8044 17.9805 34.8044 19.2855C34.8044 20.364 34.0751 21.2659 33.0869 21.5502V21.9795C33.0869 22.4114 32.737 22.7609 32.3054 22.7609C31.8739 22.7609 31.524 22.4114 31.524 21.9795V21.6521H30.5829C30.1513 21.6521 29.8014 21.3025 29.8014 20.8706C29.8014 20.4387 30.1514 20.0891 30.5829 20.0891H32.4378C32.8807 20.0891 33.2414 19.7289 33.2414 19.2856C33.2414 18.8421 32.8808 18.4819 32.4378 18.4819H32.168C30.863 18.4819 29.8014 17.4203 29.8014 16.1153C29.8014 15.0351 30.5332 14.1317 31.5239 13.849V13.4204C31.5239 12.9885 31.8738 12.639 32.3053 12.639C32.7369 12.639 33.0868 12.9885 33.0868 13.4204V13.7486H34.0229C34.4545 13.7486 34.8044 14.0982 34.8044 14.5301C34.8044 14.962 34.4544 15.3116 34.0229 15.3116H32.168C31.725 15.3117 31.3644 15.6719 31.3644 16.1153Z" fill="url(#paint0_linear_4_47)"/>
<defs>
<linearGradient id="paint0_linear_4_47" x1="25" y1="0" x2="25" y2="50.0083" gradientUnits="userSpaceOnUse">
<stop stop-color="#C6E201"/>
<stop offset="1" stop-color="#63D9F7"/>
</linearGradient>
</defs>
</svg>
