<svg width="50" height="55" viewBox="0 0 50 55" fill="none" xmlns="http://www.w3.org/2000/svg">
<path d="M36.4915 20.3035C40.241 20.3035 43.2912 17.2538 43.2912 13.5052C43.2912 9.75675 40.241 6.70706 36.4915 6.70706C32.7426 6.70706 29.6929 9.75675 29.6929 13.5052C29.693 17.2538 32.7427 20.3035 36.4915 20.3035ZM36.4915 7.83731C39.618 7.83731 42.161 10.3798 42.161 13.5052C42.161 16.6305 39.6179 19.1732 36.4915 19.1732C33.3662 19.1732 30.8231 16.6305 30.8231 13.5052C30.8231 10.3798 33.3662 7.83731 36.4915 7.83731ZM36.0882 0.00635295C29.3483 0.200887 23.8075 5.39022 23.0716 11.9971C20.093 11.9971 12.5104 11.9971 9.67949 11.9971C4.34225 11.9971 0 16.3394 0 21.6766V44.5789C0 49.9131 4.34225 54.2526 9.67949 54.2526H37.953C43.2902 54.2526 47.6324 49.9131 47.6324 44.5789C47.6324 41.6111 47.6324 37.6956 47.6324 34.7101C47.6204 20.6207 47.6548 21.8477 47.6097 21.1462C49.1294 18.9332 50 16.2802 50 13.505C50 5.91143 43.736 -0.225361 36.0882 0.00635295ZM36.1212 1.13603C43.1629 0.93528 48.8697 6.56766 48.8697 13.5052C48.8697 18.3259 46.0363 22.7012 41.7433 24.7139C39.4784 25.7787 37.6747 27.4021 36.4954 29.4319C35.4148 27.5337 33.6397 25.8259 31.2939 24.7373C29.4358 23.8741 27.7557 22.527 26.4974 20.8033C25.2071 19.0473 24.4363 16.9874 24.1995 14.94C23.3562 7.55921 29.0557 1.34035 36.1212 1.13603ZM9.67949 13.1274H18.104V23.3044C18.104 24.716 16.9555 25.8645 15.5438 25.8645H1.13025V21.6765C1.13025 16.9624 4.96521 13.1274 9.67949 13.1274ZM1.13025 44.5789V34.3679H15.5438C16.9555 34.3679 18.104 35.5164 18.104 36.9278V53.1222H9.67949C4.96521 53.1223 1.13025 49.2898 1.13025 44.5789ZM19.2342 53.1223V36.9279C19.2342 34.8932 17.5786 33.2378 15.5438 33.2378H1.13025V26.9949H15.5438C17.5786 26.9949 19.2342 25.3392 19.2342 23.3045V13.1275H22.9881C22.9774 13.519 23.003 14.4342 23.0814 15.0995C23.3507 17.4179 24.2421 19.5953 25.4771 21.3329V31.5853C25.4771 33.6201 27.1327 35.2754 29.1675 35.2754H46.5022V41.5184H29.1675C27.1327 41.5184 25.4771 43.1737 25.4771 45.2085V53.1225H19.2342V53.1223ZM37.953 53.1223H26.6074V45.2084C26.6074 43.7969 27.7558 42.6485 29.1675 42.6485H46.5022V44.579C46.5022 49.2898 42.6671 53.1223 37.953 53.1223ZM46.5022 22.5726V34.1451H29.1675C27.7558 34.1451 26.6074 32.9966 26.6074 31.5852V22.7109C27.8177 24.0088 29.3239 25.0728 30.8155 25.7627C33.1546 26.8481 34.6046 28.3683 35.7808 30.4856C36.1019 31.0702 36.9355 31.0336 37.219 30.4648C38.374 28.2136 40.1308 26.7462 42.3666 25.6635C43.951 24.8972 45.4318 23.7563 46.5022 22.5726Z" fill="url(#paint0_linear_5_53)"/>
<defs>
<linearGradient id="paint0_linear_5_53" x1="25" y1="0" x2="25" y2="54.2526" gradientUnits="userSpaceOnUse">
<stop stop-color="#C6E201"/>
<stop offset="1" stop-color="#63D9F7"/>
</linearGradient>
</defs>
</svg>
