<svg width="80" height="50" viewBox="0 0 80 50" fill="none" xmlns="http://www.w3.org/2000/svg">
<path d="M64.2936 18.3863C63.3929 18.3863 62.5152 18.4795 61.6555 18.6259L57.5879 0.649377C57.5016 0.26981 57.164 0 56.7749 0H51.1565C50.6959 0 50.3231 0.373138 50.3231 0.833375C50.3231 1.29361 50.6958 1.66675 51.1565 1.66675H56.1093L57.7259 8.81151H29.7793L28.8581 6.3522H31.3533C32.7864 6.3522 33.9379 5.20385 33.9379 3.77574C33.9379 2.35116 32.7784 1.19189 31.3533 1.19189H23.8126C22.3761 1.19189 21.2279 2.35743 21.2279 3.77574C21.2279 5.1963 22.3877 6.3522 23.8126 6.3522H27.0784L28.2541 9.49077L22.4285 19.9227C20.3849 18.9483 18.1078 18.3863 15.6966 18.3863C7.04175 18.3863 0 25.4277 0 34.0826C0 42.743 7.04191 49.7889 15.6966 49.7889C24.0742 49.7889 30.92 43.1906 31.3597 34.9208H33.2352C33.6341 37.319 35.7154 39.155 38.2226 39.155C41.0171 39.155 43.2902 36.8816 43.2902 34.0874C43.2902 32.7602 42.7734 31.5542 41.9354 30.6499L58.2966 11.3338L60.029 18.9907C53.4429 20.8551 48.5979 26.9074 48.5979 34.0824C48.5979 42.7429 55.639 49.7888 64.2936 49.7888C72.9541 49.7888 80 42.7429 80 34.0824C80 25.4277 72.9541 18.3863 64.2936 18.3863ZM22.8945 3.77574C22.8945 3.27661 23.2996 2.85864 23.8124 2.85864H31.3531C31.8593 2.85864 32.271 3.27003 32.271 3.77574C32.271 4.30218 31.845 4.68561 31.3531 4.68561H23.8124C23.3064 4.68561 22.8945 4.27744 22.8945 3.77574ZM29.0204 11.5369L35.8007 29.639C34.3821 30.4167 33.4693 31.7975 33.2289 33.254H31.3599C31.0809 27.9508 28.1659 23.3466 23.8929 20.7188L29.0204 11.5369ZM20.9048 33.2542C20.6975 31.9405 19.9475 30.6594 18.8027 29.8345L23.0809 22.1731C26.8456 24.5131 29.4179 28.5747 29.6933 33.2542H20.9048ZM19.3029 34.0837C19.3029 34.0847 19.3031 34.0858 19.3031 34.0869C19.3028 36.0741 17.6868 37.6904 15.6996 37.6904C13.7139 37.6904 12.0986 36.0738 12.0986 34.0864C12.0986 32.1007 13.7139 30.4854 15.6996 30.4854C17.6068 30.4852 19.3017 32.0602 19.3029 34.0837ZM15.6964 48.1224C7.96045 48.1224 1.66643 41.8243 1.66643 34.0826C1.66643 26.3466 7.96045 20.0531 15.6964 20.0531C17.8128 20.0531 19.8138 20.5371 21.6154 21.379L17.3175 29.0749C16.8073 28.9099 16.2642 28.8186 15.6996 28.8186C12.7952 28.8186 10.4318 31.1818 10.4318 34.0864C10.4318 36.9925 12.795 39.357 15.6996 39.357C18.3211 39.357 20.4951 37.4309 20.8972 34.9209H29.6928C29.2557 42.2717 23.1545 48.1224 15.6964 48.1224ZM38.2226 37.4884C36.3508 37.4884 34.8274 35.9629 34.8274 34.0876C34.8274 32.2122 36.3508 30.6867 38.2226 30.6867C40.0316 30.6867 41.6234 32.1727 41.6234 34.0876C41.6234 35.9629 40.0976 37.4884 38.2226 37.4884ZM40.6217 29.6221C39.9745 29.2707 39.0817 29.02 38.2226 29.02C37.934 29.02 37.6528 29.0499 37.3773 29.0965L30.4037 10.4783H56.8376L40.6217 29.6221ZM64.2936 48.1224C56.5577 48.1224 50.2644 41.8243 50.2644 34.0826C50.2644 27.6998 54.5526 22.3094 60.3964 20.6152L62.3389 29.2003C60.4023 29.9797 59.03 31.8743 59.03 34.0863C59.03 36.9923 61.3932 39.3568 64.2978 39.3568C67.2038 39.3568 69.568 36.9923 69.568 34.0863C69.568 31.1818 67.2038 28.8185 64.2978 28.8185C64.1856 28.8185 64.076 28.8284 63.9656 28.8353L62.0239 20.2538C62.7646 20.1325 63.5192 20.0529 64.2938 20.0529C72.0355 20.0529 78.3336 26.3464 78.3336 34.0824C78.3334 41.8243 72.0354 48.1224 64.2936 48.1224ZM63.4863 34.2714C63.5895 34.7255 64.0418 35.0018 64.4832 34.9C64.9324 34.7988 65.2141 34.3524 65.1124 33.9036L64.3399 30.4894C66.3075 30.5125 67.9013 32.115 67.9013 34.0863C67.9013 36.0736 66.2851 37.6902 64.2978 37.6902C62.3121 37.6902 60.6967 36.0736 60.6967 34.0863C60.6967 32.6705 61.5251 31.4552 62.7162 30.867L63.4863 34.2714Z" fill="url(#paint0_linear_5_59)"/>
<defs>
<linearGradient id="paint0_linear_5_59" x1="40" y1="0" x2="40" y2="49.7889" gradientUnits="userSpaceOnUse">
<stop stop-color="#C6E201"/>
<stop offset="1" stop-color="#63D9F7"/>
</linearGradient>
</defs>
</svg>
