<svg width="50" height="54" viewBox="0 0 50 54" fill="none" xmlns="http://www.w3.org/2000/svg">
<path d="M5.34274 22.8452H4.83085C2.78256 22.8452 1.10939 24.501 1.10939 26.5664C1.10939 28.6183 2.77859 30.2878 4.83085 30.2878H45.1686C47.2175 30.2878 48.8901 28.6333 48.8901 26.5664C48.8901 24.5144 47.2209 22.8452 45.1686 22.8452H44.6573C43.9134 13.3253 36.4901 5.79063 27.1538 4.77509C27.6008 4.26728 27.8811 3.60912 27.8811 2.88111C27.8811 1.29251 26.5884 0 24.9997 0C23.411 0 22.1183 1.29251 22.1183 2.88111C22.1183 3.60922 22.3986 4.26728 22.8455 4.77509C13.5095 5.79063 6.0863 13.3252 5.34274 22.8452ZM47.7823 26.5665C47.7823 28.0215 46.6077 29.1801 45.1686 29.1801H4.83085C3.38987 29.1801 2.21721 28.0077 2.21721 26.5665C2.21721 25.1133 3.39091 23.953 4.83085 23.953C4.70368 23.9531 5.8493 23.9568 45.1685 23.953C46.6096 23.953 47.7823 25.1255 47.7823 26.5665ZM23.2261 2.88111C23.2261 1.90317 24.0217 1.10772 24.9997 1.10772C25.9776 1.10772 26.7733 1.90317 26.7733 2.88111C26.7733 3.85906 25.9776 4.65472 24.9997 4.65472C24.0217 4.65472 23.2261 3.85906 23.2261 2.88111ZM24.9997 5.76254C34.7174 5.76254 42.7561 13.2189 43.5513 22.8452H6.44858C7.2434 13.219 15.2819 5.76254 24.9997 5.76254ZM0 36.2501V49.5797C0 51.5612 1.61575 53.1734 3.60139 53.1734H46.4062C48.3881 53.1734 50 51.5612 50 49.5797V36.2501C50 34.2685 48.3881 32.6563 46.4062 32.6563H3.60139C1.61575 32.6562 0 34.2684 0 36.2501ZM1.10782 36.2501C1.10782 34.8794 2.2264 33.764 3.60139 33.764H46.4062C47.7769 33.764 48.8923 34.8794 48.8923 36.2501V49.5797C48.8923 50.9504 47.7769 52.0657 46.4062 52.0657H3.60139C2.2264 52.0657 1.10782 50.9504 1.10782 49.5797V36.2501ZM4.71026 42.8865L6.84687 44.4456C6.93071 44.5057 6.96694 44.6174 6.93885 44.7096L6.11668 47.2256C5.7142 48.4705 7.13973 49.4992 8.1943 48.7375L10.3309 47.1832C10.4185 47.1201 10.5326 47.1196 10.6192 47.181L12.7606 48.7388C13.8145 49.4982 15.2318 48.4699 14.829 47.2254L14.0171 44.7167C13.9846 44.6131 14.0176 44.5043 14.0987 44.446C14.0998 44.4451 14.1009 44.4443 14.102 44.4436L16.2407 42.8879C17.3018 42.1204 16.7568 40.4444 15.4477 40.4444H12.8032C12.695 40.4444 12.6068 40.3811 12.5738 40.2803L11.7598 37.7658C11.3554 36.5178 9.59456 36.5232 9.19376 37.7645L8.36834 40.29C8.34078 40.3808 8.25099 40.4444 8.14931 40.4444H5.49777C4.19472 40.4443 3.65276 42.1207 4.71026 42.8865ZM5.49777 41.552H8.14931C8.74378 41.552 9.25765 41.1742 9.4248 40.6227L10.247 38.1067C10.3205 37.8811 10.6327 37.8811 10.7062 38.107L11.5209 40.6228C11.7022 41.1785 12.2176 41.5521 12.8034 41.5521H15.4479C15.6845 41.5521 15.7844 41.8507 15.5908 41.9913L13.4526 43.5464C12.9831 43.8839 12.7846 44.4866 12.9615 45.0523L13.7755 47.5668C13.8492 47.7941 13.5952 47.975 13.4104 47.8418L11.2684 46.2835C10.7955 45.9437 10.1592 45.9432 9.68236 46.2853L7.5446 47.8401C7.35981 47.9746 7.09723 47.7945 7.16979 47.568L7.99416 45.0457C8.16726 44.4878 7.96545 43.885 7.49658 43.5483L5.36163 41.9905C5.16953 41.851 5.26809 41.552 5.49777 41.552ZM19.2336 42.8865L21.3702 44.4456C21.454 44.5057 21.4908 44.6171 21.4622 44.7096L20.6405 47.2254C20.2377 48.467 21.6597 49.5007 22.7176 48.7375L24.8553 47.1829C24.9434 47.1196 25.0565 47.1201 25.1425 47.181L27.2839 48.7391C28.3412 49.4998 29.7543 48.4675 29.3524 47.2254L28.5404 44.7175C28.508 44.6134 28.5409 44.5041 28.6227 44.4457C28.6237 44.4449 28.6249 44.4444 28.6254 44.4436L30.7641 42.8879C31.8262 42.119 31.2803 40.4444 29.9712 40.4444H27.3273C27.2186 40.4444 27.1303 40.3811 27.0974 40.2803L26.2833 37.7661C25.8804 36.5184 24.1184 36.5219 23.7173 37.7645L22.8919 40.29C22.8643 40.3808 22.7745 40.4444 22.6729 40.4444H20.0218C18.7182 40.4443 18.1762 42.1207 19.2336 42.8865ZM20.0217 41.552H22.6727C23.2672 41.552 23.7811 41.1742 23.9482 40.6227L24.7704 38.1067C24.8441 37.8803 25.1566 37.8824 25.2297 38.107L26.0443 40.6228C26.2256 41.1785 26.7416 41.5521 27.3274 41.5521H29.9713C30.2095 41.5521 30.3064 41.8518 30.1141 41.9913L27.9759 43.5464C27.5069 43.8836 27.309 44.4859 27.4848 45.0523L28.2988 47.5668C28.3723 47.7936 28.1188 47.9753 27.9337 47.8418L25.7917 46.2835C25.3179 45.943 24.682 45.9432 24.2063 46.2853L22.0681 47.8402C21.8821 47.9756 21.621 47.793 21.6939 47.5681L22.5177 45.0467C22.6913 44.489 22.4901 43.8856 22.0201 43.5484L19.8852 41.9906C19.6937 41.8521 19.7914 41.552 20.0217 41.552ZM33.7576 42.8865L35.8942 44.446C35.9775 44.5057 36.0142 44.6172 35.9856 44.7097L35.164 47.2255C34.7619 48.4649 36.183 49.5014 37.2411 48.7376L39.3782 47.1833C39.4663 47.1202 39.5806 47.1197 39.6665 47.1811L41.8079 48.7389C42.8605 49.4979 44.2791 48.4711 43.8763 47.2255L43.0644 44.7168C43.0319 44.6132 43.0649 44.5042 43.146 44.4457C43.1471 44.4449 43.1482 44.4444 43.1487 44.4436L45.2875 42.8879C46.3493 42.1193 45.8042 40.4444 44.4951 40.4444H41.8507C41.742 40.4444 41.6543 40.3813 41.6213 40.2803L40.8068 37.7661C40.4043 36.5201 38.6432 36.5213 38.2407 37.7645L37.4164 40.2891C37.3883 40.3806 37.2979 40.4444 37.1968 40.4444H34.5453C33.242 40.4443 32.7002 42.1207 33.7576 42.8865ZM34.5452 41.552H37.1967C37.7901 41.552 38.3039 41.1745 38.4722 40.6227L39.2939 38.1069C39.3671 37.8815 39.6794 37.8806 39.7531 38.1069L40.5678 40.6219C40.7484 41.1782 41.264 41.552 41.8508 41.552H44.4953C44.7331 41.552 44.8303 41.8515 44.6376 41.9912L42.4995 43.5463C42.03 43.8838 41.8325 44.4867 42.0089 45.0522L42.8229 47.5664C42.8949 47.7917 42.6442 47.976 42.4578 47.8417L40.3152 46.283C39.8422 45.9436 39.2066 45.9431 38.7299 46.2852L36.5917 47.8403C36.4058 47.9741 36.1442 47.7938 36.2174 47.5679L37.0413 45.0465C37.2149 44.4882 37.0137 43.8849 36.5437 43.5482L34.4092 41.9904C34.2168 41.851 34.3155 41.552 34.5452 41.552Z" fill="url(#paint0_linear_4_44)"/>
<defs>
<linearGradient id="paint0_linear_4_44" x1="25" y1="0" x2="25" y2="53.1734" gradientUnits="userSpaceOnUse">
<stop stop-color="#C6E201"/>
<stop offset="1" stop-color="#63D9F7"/>
</linearGradient>
</defs>
</svg>
