<svg width="50" height="58" viewBox="0 0 50 58" fill="none" xmlns="http://www.w3.org/2000/svg">
<path d="M1.97361 57.3275H6.37889C7.46712 57.3275 8.35231 56.442 8.35231 55.3538V46.3782C8.35231 45.2924 7.467 44.4091 6.37889 44.4091H1.97361C0.885382 44.4091 0.00019291 45.2924 0.00019291 46.3782V55.3538C0.00019291 56.442 0.885382 57.3275 1.97361 57.3275ZM1.19444 46.3782C1.19444 45.951 1.54379 45.6035 1.97361 45.6035H6.37889C6.8087 45.6035 7.15805 45.951 7.15805 46.3782V55.3538C7.15805 55.7836 6.8087 56.1332 6.37889 56.1332H1.97361C1.54379 56.1332 1.19444 55.7836 1.19444 55.3538V46.3782ZM12.3861 37.1644C11.2979 37.1644 10.4121 38.0476 10.4121 39.1335V55.3538C10.4121 56.442 11.298 57.3275 12.3861 57.3275H16.7908C17.879 57.3275 18.7642 56.442 18.7642 55.3538V39.1335C18.7642 38.0476 17.8789 37.1644 16.7908 37.1644H12.3861ZM17.57 39.1335V55.3538C17.57 55.7836 17.2206 56.1332 16.7908 56.1332H12.3861C11.9563 56.1332 11.6064 55.7836 11.6064 55.3538V39.1335C11.6064 38.7063 11.9563 38.3588 12.3861 38.3588H16.7908C17.2206 38.3588 17.57 38.7063 17.57 39.1335ZM22.798 29.9197C21.7098 29.9197 20.824 30.8029 20.824 31.8888V55.3538C20.824 56.442 21.7099 57.3275 22.798 57.3275H27.2027C28.291 57.3275 29.1762 56.442 29.1762 55.3538V31.8888C29.1762 30.8029 28.2908 29.9197 27.2027 29.9197H22.798ZM27.9819 31.8888V55.3538C27.9819 55.7836 27.6326 56.1332 27.2027 56.1332H22.798C22.3682 56.1332 22.0183 55.7836 22.0183 55.3538V31.8888C22.0183 31.4616 22.3682 31.114 22.798 31.114H27.2027C27.6326 31.1139 27.9819 31.4616 27.9819 31.8888ZM33.2101 22.6749C32.1218 22.6749 31.2361 23.5581 31.2361 24.6439V55.3538C31.2361 56.442 32.122 57.3275 33.2101 57.3275H37.6148C38.703 57.3275 39.5882 56.442 39.5882 55.3538V24.6439C39.5882 23.5581 38.7029 22.6749 37.6148 22.6749H33.2101ZM38.3938 24.6439V55.3538C38.3938 55.7836 38.0445 56.1332 37.6147 56.1332H33.2099C32.7801 56.1332 32.4302 55.7836 32.4302 55.3538V24.6439C32.4302 24.2167 32.7801 23.8692 33.2099 23.8692H37.6147C38.0445 23.8692 38.3938 24.2169 38.3938 24.6439ZM41.6485 17.3992V55.3538C41.6485 56.442 42.5338 57.3275 43.6219 57.3275H48.0266C49.1148 57.3275 50 56.442 50 55.3538V17.3992C50 16.3134 49.1147 15.4301 48.0266 15.4301H43.6219C42.5338 15.4301 41.6485 16.3134 41.6485 17.3992ZM48.8057 17.3992V55.3538C48.8057 55.7836 48.4564 56.1332 48.0266 56.1332H43.6219C43.1851 56.1332 42.8427 55.7909 42.8427 55.3538V17.3992C42.8427 16.972 43.1921 16.6245 43.6219 16.6245H48.0266C48.4565 16.6245 48.8057 16.972 48.8057 17.3992ZM2.93754 37.4169C3.34601 37.9511 4.11696 38.0603 4.65965 37.6469L40.0314 10.6016L41.6788 12.7593C42.2669 13.5307 43.48 13.3412 43.8074 12.4328L47.7409 1.64763C48.0428 0.808781 47.3828 -0.0640816 46.4824 0.00371131L35.047 0.952242C34.5991 0.98785 34.2072 1.26484 34.0241 1.67537C33.8404 2.08589 33.8959 2.56261 34.1682 2.91961L35.8081 5.12516L0.484216 32.1765C-0.0555022 32.5873 -0.160273 33.3574 0.252077 33.8974L2.93754 37.4169ZM36.5335 6.0738C37.0691 5.66545 37.1795 4.89656 36.7644 4.35319L35.1438 2.14273L46.6177 1.24088L42.6585 12.0468C42.6386 12.0491 42.6334 12.0421 42.6281 12.0351C42.6281 12.0351 42.6281 12.0351 42.6281 12.0348L40.9807 9.8774C40.5742 9.34396 39.8074 9.22789 39.2592 9.64652L3.88699 36.692L1.20905 33.1256L36.5335 6.0738Z" fill="url(#paint0_linear_5_56)"/>
<defs>
<linearGradient id="paint0_linear_5_56" x1="25" y1="0" x2="25" y2="57.3275" gradientUnits="userSpaceOnUse">
<stop stop-color="#C6E201"/>
<stop offset="1" stop-color="#63D9F7"/>
</linearGradient>
</defs>
</svg>
