<svg width="50" height="65" viewBox="0 0 50 65" fill="none" xmlns="http://www.w3.org/2000/svg">
<path d="M0 53.9154V56.3468C0 58.4046 1.67388 60.0787 3.7317 60.0787H5.12595V61.7109C5.12595 63.0155 6.18716 64.0766 7.49206 64.0766H11.1749C12.4791 64.0766 13.5403 63.0154 13.5403 61.7109V60.0787H36.4603V61.7109C36.4603 63.0155 37.5215 64.0766 38.8258 64.0766H42.5086C43.8128 64.0766 44.8741 63.0154 44.8741 61.7109V60.0787H46.2683C48.3261 60.0787 50 58.4045 50 56.3468V53.9154C50 51.8576 48.3261 50.1837 46.2683 50.1837H38.0933C38.7908 49.436 39.2215 48.4362 39.2215 47.3353V27.2589C39.2215 24.9521 37.3449 23.0755 35.0388 23.0755C31.6895 23.0755 29.841 23.0755 27.5819 23.0755V18.5621C31.5479 17.4354 34.4644 13.7893 34.4644 9.46706C34.4644 4.24697 30.2197 0 25.0026 0C19.7822 0 15.5356 4.24697 15.5356 9.46706C15.5356 13.7879 18.4518 17.4333 22.4181 18.5611V23.0754C20.1706 23.0754 18.3271 23.0754 14.962 23.0754C12.6552 23.0754 10.7786 24.952 10.7786 27.2588V47.3352C10.7786 48.4361 11.2093 49.4358 11.9068 50.1836H3.7317C1.67388 50.1837 0 51.8576 0 53.9154ZM11.1747 62.7417H7.49193C6.9235 62.7417 6.46076 62.2792 6.46076 61.7109V60.0787H12.2053C12.0961 60.7082 12.6568 62.7417 11.1747 62.7417ZM43.539 61.7109C43.539 62.2793 43.0769 62.7417 42.5084 62.7417H38.8256C38.2572 62.7417 37.7951 62.2792 37.7951 61.7109V60.0787H43.5389V61.7109H43.539ZM48.6648 53.9154V56.3468C48.6648 57.6686 47.5899 58.7438 46.2681 58.7438C33.6842 58.7438 18.8977 58.7438 3.73158 58.7438C2.40971 58.7438 1.33481 57.6686 1.33481 56.3468V53.9154C1.33481 52.5938 2.40971 51.5187 3.73158 51.5187H46.2681C47.59 51.5187 48.6648 52.5938 48.6648 53.9154ZM22.727 24.4105C24.8856 24.4108 27.4316 24.4102 27.2741 24.4105V28.0593C27.2741 28.1998 27.16 28.3138 27.0192 28.3138H22.9819C22.8391 28.3138 22.727 28.2021 22.727 28.0593V24.4105ZM16.8704 9.46718C16.8704 4.98293 20.5186 1.33506 25.0025 1.33506C29.4837 1.33506 33.1294 4.98293 33.1294 9.46718C33.1294 14.7039 28.234 18.5159 23.2589 17.4009C19.6109 16.6006 16.8704 13.3496 16.8704 9.46718ZM23.7529 18.8453C24.8613 18.9944 25.5178 18.9084 26.2468 18.8459V23.0755H23.7529V18.8453ZM12.1134 47.3353V27.2589C12.1134 25.6883 13.391 24.4105 14.9619 24.4105H21.3921V28.0593C21.3921 28.9357 22.1052 29.6488 22.9819 29.6488H27.0192C27.896 29.6488 28.609 28.9357 28.609 28.0593V24.4105H35.0386C36.6088 24.4105 37.8865 25.6883 37.8865 27.2589V47.3353C37.8865 48.9059 36.6088 50.1837 35.0386 50.1837H14.9619C13.3909 50.1837 12.1134 48.9059 12.1134 47.3353ZM34.845 46.4459C34.845 46.8145 34.5465 47.1133 34.1775 47.1133H29.416C29.047 47.1133 28.7485 46.8145 28.7485 46.4459C28.7485 46.0773 29.047 45.7784 29.416 45.7784H34.1775C34.5465 45.7784 34.845 46.0773 34.845 46.4459ZM25.0005 11.7124C26.2397 11.7124 27.248 10.704 27.248 9.46492C27.248 8.45914 26.58 7.61572 25.668 7.32918V3.21165C25.668 2.84305 25.3695 2.54419 25.0005 2.54419C24.6315 2.54419 24.333 2.84305 24.333 3.21165V7.32906C23.4203 7.61535 22.7518 8.45901 22.7518 9.46492C22.7518 10.704 23.7607 11.7124 25.0005 11.7124ZM25.0005 8.55138C25.5037 8.55138 25.913 8.96109 25.913 9.46492C25.913 9.96813 25.5037 10.3775 25.0005 10.3775C24.4967 10.3775 24.0867 9.96813 24.0867 9.46492C24.0867 8.96096 24.4967 8.55138 25.0005 8.55138Z" fill="url(#paint0_linear_5_50)"/>
<defs>
<linearGradient id="paint0_linear_5_50" x1="25" y1="0" x2="25" y2="64.0766" gradientUnits="userSpaceOnUse">
<stop stop-color="#C6E201"/>
<stop offset="1" stop-color="#63D9F7"/>
</linearGradient>
</defs>
</svg>
